<?xml version="1.0" encoding="utf-8" standalone="no"?>
<!DOCTYPE svg PUBLIC "-//W3C//DTD SVG 1.1//EN"
  "http://www.w3.org/Graphics/SVG/1.1/DTD/svg11.dtd">
<svg xmlns:xlink="http://www.w3.org/1999/xlink" width="720pt" height="432pt" viewBox="0 0 720 432" xmlns="http://www.w3.org/2000/svg" version="1.1">
 <metadata>
  <rdf:RDF xmlns:dc="http://purl.org/dc/elements/1.1/" xmlns:cc="http://creativecommons.org/ns#" xmlns:rdf="http://www.w3.org/1999/02/22-rdf-syntax-ns#">
   <cc:Work>
    <dc:type rdf:resource="http://purl.org/dc/dcmitype/StillImage"/>
    <dc:date>2025-05-15T14:49:09.227560</dc:date>
    <dc:format>image/svg+xml</dc:format>
    <dc:creator>
     <cc:Agent>
      <dc:title>Matplotlib v3.10.1, https://matplotlib.org/</dc:title>
     </cc:Agent>
    </dc:creator>
   </cc:Work>
  </rdf:RDF>
 </metadata>
 <defs>
  <style type="text/css">*{stroke-linejoin: round; stroke-linecap: butt}</style>
 </defs>
 <g id="figure_1">
  <g id="patch_1">
   <path d="M 0 432 
L 720 432 
L 720 0 
L 0 0 
z
" style="fill: #ffffff"/>
  </g>
  <g id="axes_1">
   <g id="patch_2">
    <path d="M 70.22 390.04 
L 709.2 390.04 
L 709.2 25.44 
L 70.22 25.44 
z
" style="fill: #ffffff"/>
   </g>
   <g id="matplotlib.axis_1">
    <g id="xtick_1">
     <g id="line2d_1">
      <defs>
       <path id="m08e9f7bfb0" d="M 0 0 
L 0 3.5 
" style="stroke: #000000; stroke-width: 0.8"/>
      </defs>
      <g>
       <use xlink:href="#m08e9f7bfb0" x="70.22" y="390.04" style="stroke: #000000; stroke-width: 0.8"/>
      </g>
     </g>
     <g id="text_1">
      <!-- 2005 -->
      <g transform="translate(57.495 404.638438) scale(0.1 -0.1)">
       <defs>
        <path id="DejaVuSans-32" d="M 1228 531 
L 3431 531 
L 3431 0 
L 469 0 
L 469 531 
Q 828 903 1448 1529 
Q 2069 2156 2228 2338 
Q 2531 2678 2651 2914 
Q 2772 3150 2772 3378 
Q 2772 3750 2511 3984 
Q 2250 4219 1831 4219 
Q 1534 4219 1204 4116 
Q 875 4013 500 3803 
L 500 4441 
Q 881 4594 1212 4672 
Q 1544 4750 1819 4750 
Q 2544 4750 2975 4387 
Q 3406 4025 3406 3419 
Q 3406 3131 3298 2873 
Q 3191 2616 2906 2266 
Q 2828 2175 2409 1742 
Q 1991 1309 1228 531 
z
" transform="scale(0.015625)"/>
        <path id="DejaVuSans-30" d="M 2034 4250 
Q 1547 4250 1301 3770 
Q 1056 3291 1056 2328 
Q 1056 1369 1301 889 
Q 1547 409 2034 409 
Q 2525 409 2770 889 
Q 3016 1369 3016 2328 
Q 3016 3291 2770 3770 
Q 2525 4250 2034 4250 
z
M 2034 4750 
Q 2819 4750 3233 4129 
Q 3647 3509 3647 2328 
Q 3647 1150 3233 529 
Q 2819 -91 2034 -91 
Q 1250 -91 836 529 
Q 422 1150 422 2328 
Q 422 3509 836 4129 
Q 1250 4750 2034 4750 
z
" transform="scale(0.015625)"/>
        <path id="DejaVuSans-35" d="M 691 4666 
L 3169 4666 
L 3169 4134 
L 1269 4134 
L 1269 2991 
Q 1406 3038 1543 3061 
Q 1681 3084 1819 3084 
Q 2600 3084 3056 2656 
Q 3513 2228 3513 1497 
Q 3513 744 3044 326 
Q 2575 -91 1722 -91 
Q 1428 -91 1123 -41 
Q 819 9 494 109 
L 494 744 
Q 775 591 1075 516 
Q 1375 441 1709 441 
Q 2250 441 2565 725 
Q 2881 1009 2881 1497 
Q 2881 1984 2565 2268 
Q 2250 2553 1709 2553 
Q 1456 2553 1204 2497 
Q 953 2441 691 2322 
L 691 4666 
z
" transform="scale(0.015625)"/>
       </defs>
       <use xlink:href="#DejaVuSans-32"/>
       <use xlink:href="#DejaVuSans-30" transform="translate(63.623047 0)"/>
       <use xlink:href="#DejaVuSans-30" transform="translate(127.246094 0)"/>
       <use xlink:href="#DejaVuSans-35" transform="translate(190.869141 0)"/>
      </g>
     </g>
    </g>
    <g id="xtick_2">
     <g id="line2d_2">
      <g>
       <use xlink:href="#m08e9f7bfb0" x="134.654958" y="390.04" style="stroke: #000000; stroke-width: 0.8"/>
      </g>
     </g>
     <g id="text_2">
      <!-- 2006 -->
      <g transform="translate(121.929958 404.638438) scale(0.1 -0.1)">
       <defs>
        <path id="DejaVuSans-36" d="M 2113 2584 
Q 1688 2584 1439 2293 
Q 1191 2003 1191 1497 
Q 1191 994 1439 701 
Q 1688 409 2113 409 
Q 2538 409 2786 701 
Q 3034 994 3034 1497 
Q 3034 2003 2786 2293 
Q 2538 2584 2113 2584 
z
M 3366 4563 
L 3366 3988 
Q 3128 4100 2886 4159 
Q 2644 4219 2406 4219 
Q 1781 4219 1451 3797 
Q 1122 3375 1075 2522 
Q 1259 2794 1537 2939 
Q 1816 3084 2150 3084 
Q 2853 3084 3261 2657 
Q 3669 2231 3669 1497 
Q 3669 778 3244 343 
Q 2819 -91 2113 -91 
Q 1303 -91 875 529 
Q 447 1150 447 2328 
Q 447 3434 972 4092 
Q 1497 4750 2381 4750 
Q 2619 4750 2861 4703 
Q 3103 4656 3366 4563 
z
" transform="scale(0.015625)"/>
       </defs>
       <use xlink:href="#DejaVuSans-32"/>
       <use xlink:href="#DejaVuSans-30" transform="translate(63.623047 0)"/>
       <use xlink:href="#DejaVuSans-30" transform="translate(127.246094 0)"/>
       <use xlink:href="#DejaVuSans-36" transform="translate(190.869141 0)"/>
      </g>
     </g>
    </g>
    <g id="xtick_3">
     <g id="line2d_3">
      <g>
       <use xlink:href="#m08e9f7bfb0" x="199.089916" y="390.04" style="stroke: #000000; stroke-width: 0.8"/>
      </g>
     </g>
     <g id="text_3">
      <!-- 2007 -->
      <g transform="translate(186.364916 404.638438) scale(0.1 -0.1)">
       <defs>
        <path id="DejaVuSans-37" d="M 525 4666 
L 3525 4666 
L 3525 4397 
L 1831 0 
L 1172 0 
L 2766 4134 
L 525 4134 
L 525 4666 
z
" transform="scale(0.015625)"/>
       </defs>
       <use xlink:href="#DejaVuSans-32"/>
       <use xlink:href="#DejaVuSans-30" transform="translate(63.623047 0)"/>
       <use xlink:href="#DejaVuSans-30" transform="translate(127.246094 0)"/>
       <use xlink:href="#DejaVuSans-37" transform="translate(190.869141 0)"/>
      </g>
     </g>
    </g>
    <g id="xtick_4">
     <g id="line2d_4">
      <g>
       <use xlink:href="#m08e9f7bfb0" x="263.524874" y="390.04" style="stroke: #000000; stroke-width: 0.8"/>
      </g>
     </g>
     <g id="text_4">
      <!-- 2008 -->
      <g transform="translate(250.799874 404.638438) scale(0.1 -0.1)">
       <defs>
        <path id="DejaVuSans-38" d="M 2034 2216 
Q 1584 2216 1326 1975 
Q 1069 1734 1069 1313 
Q 1069 891 1326 650 
Q 1584 409 2034 409 
Q 2484 409 2743 651 
Q 3003 894 3003 1313 
Q 3003 1734 2745 1975 
Q 2488 2216 2034 2216 
z
M 1403 2484 
Q 997 2584 770 2862 
Q 544 3141 544 3541 
Q 544 4100 942 4425 
Q 1341 4750 2034 4750 
Q 2731 4750 3128 4425 
Q 3525 4100 3525 3541 
Q 3525 3141 3298 2862 
Q 3072 2584 2669 2484 
Q 3125 2378 3379 2068 
Q 3634 1759 3634 1313 
Q 3634 634 3220 271 
Q 2806 -91 2034 -91 
Q 1263 -91 848 271 
Q 434 634 434 1313 
Q 434 1759 690 2068 
Q 947 2378 1403 2484 
z
M 1172 3481 
Q 1172 3119 1398 2916 
Q 1625 2713 2034 2713 
Q 2441 2713 2670 2916 
Q 2900 3119 2900 3481 
Q 2900 3844 2670 4047 
Q 2441 4250 2034 4250 
Q 1625 4250 1398 4047 
Q 1172 3844 1172 3481 
z
" transform="scale(0.015625)"/>
       </defs>
       <use xlink:href="#DejaVuSans-32"/>
       <use xlink:href="#DejaVuSans-30" transform="translate(63.623047 0)"/>
       <use xlink:href="#DejaVuSans-30" transform="translate(127.246094 0)"/>
       <use xlink:href="#DejaVuSans-38" transform="translate(190.869141 0)"/>
      </g>
     </g>
    </g>
    <g id="xtick_5">
     <g id="line2d_5">
      <g>
       <use xlink:href="#m08e9f7bfb0" x="327.959832" y="390.04" style="stroke: #000000; stroke-width: 0.8"/>
      </g>
     </g>
     <g id="text_5">
      <!-- 2009 -->
      <g transform="translate(315.234832 404.638438) scale(0.1 -0.1)">
       <defs>
        <path id="DejaVuSans-39" d="M 703 97 
L 703 672 
Q 941 559 1184 500 
Q 1428 441 1663 441 
Q 2288 441 2617 861 
Q 2947 1281 2994 2138 
Q 2813 1869 2534 1725 
Q 2256 1581 1919 1581 
Q 1219 1581 811 2004 
Q 403 2428 403 3163 
Q 403 3881 828 4315 
Q 1253 4750 1959 4750 
Q 2769 4750 3195 4129 
Q 3622 3509 3622 2328 
Q 3622 1225 3098 567 
Q 2575 -91 1691 -91 
Q 1453 -91 1209 -44 
Q 966 3 703 97 
z
M 1959 2075 
Q 2384 2075 2632 2365 
Q 2881 2656 2881 3163 
Q 2881 3666 2632 3958 
Q 2384 4250 1959 4250 
Q 1534 4250 1286 3958 
Q 1038 3666 1038 3163 
Q 1038 2656 1286 2365 
Q 1534 2075 1959 2075 
z
" transform="scale(0.015625)"/>
       </defs>
       <use xlink:href="#DejaVuSans-32"/>
       <use xlink:href="#DejaVuSans-30" transform="translate(63.623047 0)"/>
       <use xlink:href="#DejaVuSans-30" transform="translate(127.246094 0)"/>
       <use xlink:href="#DejaVuSans-39" transform="translate(190.869141 0)"/>
      </g>
     </g>
    </g>
    <g id="xtick_6">
     <g id="line2d_6">
      <g>
       <use xlink:href="#m08e9f7bfb0" x="392.39479" y="390.04" style="stroke: #000000; stroke-width: 0.8"/>
      </g>
     </g>
     <g id="text_6">
      <!-- 2010 -->
      <g transform="translate(379.66979 404.638438) scale(0.1 -0.1)">
       <defs>
        <path id="DejaVuSans-31" d="M 794 531 
L 1825 531 
L 1825 4091 
L 703 3866 
L 703 4441 
L 1819 4666 
L 2450 4666 
L 2450 531 
L 3481 531 
L 3481 0 
L 794 0 
L 794 531 
z
" transform="scale(0.015625)"/>
       </defs>
       <use xlink:href="#DejaVuSans-32"/>
       <use xlink:href="#DejaVuSans-30" transform="translate(63.623047 0)"/>
       <use xlink:href="#DejaVuSans-31" transform="translate(127.246094 0)"/>
       <use xlink:href="#DejaVuSans-30" transform="translate(190.869141 0)"/>
      </g>
     </g>
    </g>
    <g id="xtick_7">
     <g id="line2d_7">
      <g>
       <use xlink:href="#m08e9f7bfb0" x="456.829748" y="390.04" style="stroke: #000000; stroke-width: 0.8"/>
      </g>
     </g>
     <g id="text_7">
      <!-- 2011 -->
      <g transform="translate(444.104748 404.638438) scale(0.1 -0.1)">
       <use xlink:href="#DejaVuSans-32"/>
       <use xlink:href="#DejaVuSans-30" transform="translate(63.623047 0)"/>
       <use xlink:href="#DejaVuSans-31" transform="translate(127.246094 0)"/>
       <use xlink:href="#DejaVuSans-31" transform="translate(190.869141 0)"/>
      </g>
     </g>
    </g>
    <g id="xtick_8">
     <g id="line2d_8">
      <g>
       <use xlink:href="#m08e9f7bfb0" x="521.264706" y="390.04" style="stroke: #000000; stroke-width: 0.8"/>
      </g>
     </g>
     <g id="text_8">
      <!-- 2012 -->
      <g transform="translate(508.539706 404.638438) scale(0.1 -0.1)">
       <use xlink:href="#DejaVuSans-32"/>
       <use xlink:href="#DejaVuSans-30" transform="translate(63.623047 0)"/>
       <use xlink:href="#DejaVuSans-31" transform="translate(127.246094 0)"/>
       <use xlink:href="#DejaVuSans-32" transform="translate(190.869141 0)"/>
      </g>
     </g>
    </g>
    <g id="xtick_9">
     <g id="line2d_9">
      <g>
       <use xlink:href="#m08e9f7bfb0" x="585.699664" y="390.04" style="stroke: #000000; stroke-width: 0.8"/>
      </g>
     </g>
     <g id="text_9">
      <!-- 2013 -->
      <g transform="translate(572.974664 404.638438) scale(0.1 -0.1)">
       <defs>
        <path id="DejaVuSans-33" d="M 2597 2516 
Q 3050 2419 3304 2112 
Q 3559 1806 3559 1356 
Q 3559 666 3084 287 
Q 2609 -91 1734 -91 
Q 1441 -91 1130 -33 
Q 819 25 488 141 
L 488 750 
Q 750 597 1062 519 
Q 1375 441 1716 441 
Q 2309 441 2620 675 
Q 2931 909 2931 1356 
Q 2931 1769 2642 2001 
Q 2353 2234 1838 2234 
L 1294 2234 
L 1294 2753 
L 1863 2753 
Q 2328 2753 2575 2939 
Q 2822 3125 2822 3475 
Q 2822 3834 2567 4026 
Q 2313 4219 1838 4219 
Q 1578 4219 1281 4162 
Q 984 4106 628 3988 
L 628 4550 
Q 988 4650 1302 4700 
Q 1616 4750 1894 4750 
Q 2613 4750 3031 4423 
Q 3450 4097 3450 3541 
Q 3450 3153 3228 2886 
Q 3006 2619 2597 2516 
z
" transform="scale(0.015625)"/>
       </defs>
       <use xlink:href="#DejaVuSans-32"/>
       <use xlink:href="#DejaVuSans-30" transform="translate(63.623047 0)"/>
       <use xlink:href="#DejaVuSans-31" transform="translate(127.246094 0)"/>
       <use xlink:href="#DejaVuSans-33" transform="translate(190.869141 0)"/>
      </g>
     </g>
    </g>
    <g id="xtick_10">
     <g id="line2d_10">
      <g>
       <use xlink:href="#m08e9f7bfb0" x="650.134622" y="390.04" style="stroke: #000000; stroke-width: 0.8"/>
      </g>
     </g>
     <g id="text_10">
      <!-- 2014 -->
      <g transform="translate(637.409622 404.638438) scale(0.1 -0.1)">
       <defs>
        <path id="DejaVuSans-34" d="M 2419 4116 
L 825 1625 
L 2419 1625 
L 2419 4116 
z
M 2253 4666 
L 3047 4666 
L 3047 1625 
L 3713 1625 
L 3713 1100 
L 3047 1100 
L 3047 0 
L 2419 0 
L 2419 1100 
L 313 1100 
L 313 1709 
L 2253 4666 
z
" transform="scale(0.015625)"/>
       </defs>
       <use xlink:href="#DejaVuSans-32"/>
       <use xlink:href="#DejaVuSans-30" transform="translate(63.623047 0)"/>
       <use xlink:href="#DejaVuSans-31" transform="translate(127.246094 0)"/>
       <use xlink:href="#DejaVuSans-34" transform="translate(190.869141 0)"/>
      </g>
     </g>
    </g>
    <g id="xtick_11">
     <g id="line2d_11">
      <defs>
       <path id="mad5bae37bb" d="M 0 0 
L 0 2 
" style="stroke: #000000; stroke-width: 0.6"/>
      </defs>
      <g>
       <use xlink:href="#mad5bae37bb" x="86.328739" y="390.04" style="stroke: #000000; stroke-width: 0.6"/>
      </g>
     </g>
    </g>
    <g id="xtick_12">
     <g id="line2d_12">
      <g>
       <use xlink:href="#mad5bae37bb" x="102.437479" y="390.04" style="stroke: #000000; stroke-width: 0.6"/>
      </g>
     </g>
    </g>
    <g id="xtick_13">
     <g id="line2d_13">
      <g>
       <use xlink:href="#mad5bae37bb" x="118.546218" y="390.04" style="stroke: #000000; stroke-width: 0.6"/>
      </g>
     </g>
    </g>
    <g id="xtick_14">
     <g id="line2d_14">
      <g>
       <use xlink:href="#mad5bae37bb" x="150.763697" y="390.04" style="stroke: #000000; stroke-width: 0.6"/>
      </g>
     </g>
    </g>
    <g id="xtick_15">
     <g id="line2d_15">
      <g>
       <use xlink:href="#mad5bae37bb" x="166.872437" y="390.04" style="stroke: #000000; stroke-width: 0.6"/>
      </g>
     </g>
    </g>
    <g id="xtick_16">
     <g id="line2d_16">
      <g>
       <use xlink:href="#mad5bae37bb" x="182.981176" y="390.04" style="stroke: #000000; stroke-width: 0.6"/>
      </g>
     </g>
    </g>
    <g id="xtick_17">
     <g id="line2d_17">
      <g>
       <use xlink:href="#mad5bae37bb" x="215.198655" y="390.04" style="stroke: #000000; stroke-width: 0.6"/>
      </g>
     </g>
    </g>
    <g id="xtick_18">
     <g id="line2d_18">
      <g>
       <use xlink:href="#mad5bae37bb" x="231.307395" y="390.04" style="stroke: #000000; stroke-width: 0.6"/>
      </g>
     </g>
    </g>
    <g id="xtick_19">
     <g id="line2d_19">
      <g>
       <use xlink:href="#mad5bae37bb" x="247.416134" y="390.04" style="stroke: #000000; stroke-width: 0.6"/>
      </g>
     </g>
    </g>
    <g id="xtick_20">
     <g id="line2d_20">
      <g>
       <use xlink:href="#mad5bae37bb" x="279.633613" y="390.04" style="stroke: #000000; stroke-width: 0.6"/>
      </g>
     </g>
    </g>
    <g id="xtick_21">
     <g id="line2d_21">
      <g>
       <use xlink:href="#mad5bae37bb" x="295.742353" y="390.04" style="stroke: #000000; stroke-width: 0.6"/>
      </g>
     </g>
    </g>
    <g id="xtick_22">
     <g id="line2d_22">
      <g>
       <use xlink:href="#mad5bae37bb" x="311.851092" y="390.04" style="stroke: #000000; stroke-width: 0.6"/>
      </g>
     </g>
    </g>
    <g id="xtick_23">
     <g id="line2d_23">
      <g>
       <use xlink:href="#mad5bae37bb" x="344.068571" y="390.04" style="stroke: #000000; stroke-width: 0.6"/>
      </g>
     </g>
    </g>
    <g id="xtick_24">
     <g id="line2d_24">
      <g>
       <use xlink:href="#mad5bae37bb" x="360.177311" y="390.04" style="stroke: #000000; stroke-width: 0.6"/>
      </g>
     </g>
    </g>
    <g id="xtick_25">
     <g id="line2d_25">
      <g>
       <use xlink:href="#mad5bae37bb" x="376.28605" y="390.04" style="stroke: #000000; stroke-width: 0.6"/>
      </g>
     </g>
    </g>
    <g id="xtick_26">
     <g id="line2d_26">
      <g>
       <use xlink:href="#mad5bae37bb" x="408.503529" y="390.04" style="stroke: #000000; stroke-width: 0.6"/>
      </g>
     </g>
    </g>
    <g id="xtick_27">
     <g id="line2d_27">
      <g>
       <use xlink:href="#mad5bae37bb" x="424.612269" y="390.04" style="stroke: #000000; stroke-width: 0.6"/>
      </g>
     </g>
    </g>
    <g id="xtick_28">
     <g id="line2d_28">
      <g>
       <use xlink:href="#mad5bae37bb" x="440.721008" y="390.04" style="stroke: #000000; stroke-width: 0.6"/>
      </g>
     </g>
    </g>
    <g id="xtick_29">
     <g id="line2d_29">
      <g>
       <use xlink:href="#mad5bae37bb" x="472.938487" y="390.04" style="stroke: #000000; stroke-width: 0.6"/>
      </g>
     </g>
    </g>
    <g id="xtick_30">
     <g id="line2d_30">
      <g>
       <use xlink:href="#mad5bae37bb" x="489.047227" y="390.04" style="stroke: #000000; stroke-width: 0.6"/>
      </g>
     </g>
    </g>
    <g id="xtick_31">
     <g id="line2d_31">
      <g>
       <use xlink:href="#mad5bae37bb" x="505.155966" y="390.04" style="stroke: #000000; stroke-width: 0.6"/>
      </g>
     </g>
    </g>
    <g id="xtick_32">
     <g id="line2d_32">
      <g>
       <use xlink:href="#mad5bae37bb" x="537.373445" y="390.04" style="stroke: #000000; stroke-width: 0.6"/>
      </g>
     </g>
    </g>
    <g id="xtick_33">
     <g id="line2d_33">
      <g>
       <use xlink:href="#mad5bae37bb" x="553.482185" y="390.04" style="stroke: #000000; stroke-width: 0.6"/>
      </g>
     </g>
    </g>
    <g id="xtick_34">
     <g id="line2d_34">
      <g>
       <use xlink:href="#mad5bae37bb" x="569.590924" y="390.04" style="stroke: #000000; stroke-width: 0.6"/>
      </g>
     </g>
    </g>
    <g id="xtick_35">
     <g id="line2d_35">
      <g>
       <use xlink:href="#mad5bae37bb" x="601.808403" y="390.04" style="stroke: #000000; stroke-width: 0.6"/>
      </g>
     </g>
    </g>
    <g id="xtick_36">
     <g id="line2d_36">
      <g>
       <use xlink:href="#mad5bae37bb" x="617.917143" y="390.04" style="stroke: #000000; stroke-width: 0.6"/>
      </g>
     </g>
    </g>
    <g id="xtick_37">
     <g id="line2d_37">
      <g>
       <use xlink:href="#mad5bae37bb" x="634.025882" y="390.04" style="stroke: #000000; stroke-width: 0.6"/>
      </g>
     </g>
    </g>
    <g id="xtick_38">
     <g id="line2d_38">
      <g>
       <use xlink:href="#mad5bae37bb" x="666.243361" y="390.04" style="stroke: #000000; stroke-width: 0.6"/>
      </g>
     </g>
    </g>
    <g id="xtick_39">
     <g id="line2d_39">
      <g>
       <use xlink:href="#mad5bae37bb" x="682.352101" y="390.04" style="stroke: #000000; stroke-width: 0.6"/>
      </g>
     </g>
    </g>
    <g id="xtick_40">
     <g id="line2d_40">
      <g>
       <use xlink:href="#mad5bae37bb" x="698.46084" y="390.04" style="stroke: #000000; stroke-width: 0.6"/>
      </g>
     </g>
    </g>
    <g id="text_11">
     <!-- Date -->
     <g transform="translate(377.759219 418.316562) scale(0.1 -0.1)">
      <defs>
       <path id="DejaVuSans-44" d="M 1259 4147 
L 1259 519 
L 2022 519 
Q 2988 519 3436 956 
Q 3884 1394 3884 2338 
Q 3884 3275 3436 3711 
Q 2988 4147 2022 4147 
L 1259 4147 
z
M 628 4666 
L 1925 4666 
Q 3281 4666 3915 4102 
Q 4550 3538 4550 2338 
Q 4550 1131 3912 565 
Q 3275 0 1925 0 
L 628 0 
L 628 4666 
z
" transform="scale(0.015625)"/>
       <path id="DejaVuSans-61" d="M 2194 1759 
Q 1497 1759 1228 1600 
Q 959 1441 959 1056 
Q 959 750 1161 570 
Q 1363 391 1709 391 
Q 2188 391 2477 730 
Q 2766 1069 2766 1631 
L 2766 1759 
L 2194 1759 
z
M 3341 1997 
L 3341 0 
L 2766 0 
L 2766 531 
Q 2569 213 2275 61 
Q 1981 -91 1556 -91 
Q 1019 -91 701 211 
Q 384 513 384 1019 
Q 384 1609 779 1909 
Q 1175 2209 1959 2209 
L 2766 2209 
L 2766 2266 
Q 2766 2663 2505 2880 
Q 2244 3097 1772 3097 
Q 1472 3097 1187 3025 
Q 903 2953 641 2809 
L 641 3341 
Q 956 3463 1253 3523 
Q 1550 3584 1831 3584 
Q 2591 3584 2966 3190 
Q 3341 2797 3341 1997 
z
" transform="scale(0.015625)"/>
       <path id="DejaVuSans-74" d="M 1172 4494 
L 1172 3500 
L 2356 3500 
L 2356 3053 
L 1172 3053 
L 1172 1153 
Q 1172 725 1289 603 
Q 1406 481 1766 481 
L 2356 481 
L 2356 0 
L 1766 0 
Q 1100 0 847 248 
Q 594 497 594 1153 
L 594 3053 
L 172 3053 
L 172 3500 
L 594 3500 
L 594 4494 
L 1172 4494 
z
" transform="scale(0.015625)"/>
       <path id="DejaVuSans-65" d="M 3597 1894 
L 3597 1613 
L 953 1613 
Q 991 1019 1311 708 
Q 1631 397 2203 397 
Q 2534 397 2845 478 
Q 3156 559 3463 722 
L 3463 178 
Q 3153 47 2828 -22 
Q 2503 -91 2169 -91 
Q 1331 -91 842 396 
Q 353 884 353 1716 
Q 353 2575 817 3079 
Q 1281 3584 2069 3584 
Q 2775 3584 3186 3129 
Q 3597 2675 3597 1894 
z
M 3022 2063 
Q 3016 2534 2758 2815 
Q 2500 3097 2075 3097 
Q 1594 3097 1305 2825 
Q 1016 2553 972 2059 
L 3022 2063 
z
" transform="scale(0.015625)"/>
      </defs>
      <use xlink:href="#DejaVuSans-44"/>
      <use xlink:href="#DejaVuSans-61" transform="translate(77.001953 0)"/>
      <use xlink:href="#DejaVuSans-74" transform="translate(138.28125 0)"/>
      <use xlink:href="#DejaVuSans-65" transform="translate(177.490234 0)"/>
     </g>
    </g>
   </g>
   <g id="matplotlib.axis_2">
    <g id="ytick_1">
     <g id="line2d_41">
      <defs>
       <path id="m18d6a16c8d" d="M 0 0 
L -3.5 0 
" style="stroke: #000000; stroke-width: 0.8"/>
      </defs>
      <g>
       <use xlink:href="#m18d6a16c8d" x="70.22" y="347.369757" style="stroke: #000000; stroke-width: 0.8"/>
      </g>
     </g>
     <g id="text_12">
      <!-- 100000 -->
      <g transform="translate(25.045 351.168976) scale(0.1 -0.1)">
       <use xlink:href="#DejaVuSans-31"/>
       <use xlink:href="#DejaVuSans-30" transform="translate(63.623047 0)"/>
       <use xlink:href="#DejaVuSans-30" transform="translate(127.246094 0)"/>
       <use xlink:href="#DejaVuSans-30" transform="translate(190.869141 0)"/>
       <use xlink:href="#DejaVuSans-30" transform="translate(254.492188 0)"/>
       <use xlink:href="#DejaVuSans-30" transform="translate(318.115234 0)"/>
      </g>
     </g>
    </g>
    <g id="ytick_2">
     <g id="line2d_42">
      <g>
       <use xlink:href="#m18d6a16c8d" x="70.22" y="271.029616" style="stroke: #000000; stroke-width: 0.8"/>
      </g>
     </g>
     <g id="text_13">
      <!-- 150000 -->
      <g transform="translate(25.045 274.828835) scale(0.1 -0.1)">
       <use xlink:href="#DejaVuSans-31"/>
       <use xlink:href="#DejaVuSans-35" transform="translate(63.623047 0)"/>
       <use xlink:href="#DejaVuSans-30" transform="translate(127.246094 0)"/>
       <use xlink:href="#DejaVuSans-30" transform="translate(190.869141 0)"/>
       <use xlink:href="#DejaVuSans-30" transform="translate(254.492188 0)"/>
       <use xlink:href="#DejaVuSans-30" transform="translate(318.115234 0)"/>
      </g>
     </g>
    </g>
    <g id="ytick_3">
     <g id="line2d_43">
      <g>
       <use xlink:href="#m18d6a16c8d" x="70.22" y="194.689474" style="stroke: #000000; stroke-width: 0.8"/>
      </g>
     </g>
     <g id="text_14">
      <!-- 200000 -->
      <g transform="translate(25.045 198.488693) scale(0.1 -0.1)">
       <use xlink:href="#DejaVuSans-32"/>
       <use xlink:href="#DejaVuSans-30" transform="translate(63.623047 0)"/>
       <use xlink:href="#DejaVuSans-30" transform="translate(127.246094 0)"/>
       <use xlink:href="#DejaVuSans-30" transform="translate(190.869141 0)"/>
       <use xlink:href="#DejaVuSans-30" transform="translate(254.492188 0)"/>
       <use xlink:href="#DejaVuSans-30" transform="translate(318.115234 0)"/>
      </g>
     </g>
    </g>
    <g id="ytick_4">
     <g id="line2d_44">
      <g>
       <use xlink:href="#m18d6a16c8d" x="70.22" y="118.349333" style="stroke: #000000; stroke-width: 0.8"/>
      </g>
     </g>
     <g id="text_15">
      <!-- 250000 -->
      <g transform="translate(25.045 122.148552) scale(0.1 -0.1)">
       <use xlink:href="#DejaVuSans-32"/>
       <use xlink:href="#DejaVuSans-35" transform="translate(63.623047 0)"/>
       <use xlink:href="#DejaVuSans-30" transform="translate(127.246094 0)"/>
       <use xlink:href="#DejaVuSans-30" transform="translate(190.869141 0)"/>
       <use xlink:href="#DejaVuSans-30" transform="translate(254.492188 0)"/>
       <use xlink:href="#DejaVuSans-30" transform="translate(318.115234 0)"/>
      </g>
     </g>
    </g>
    <g id="ytick_5">
     <g id="line2d_45">
      <g>
       <use xlink:href="#m18d6a16c8d" x="70.22" y="42.009191" style="stroke: #000000; stroke-width: 0.8"/>
      </g>
     </g>
     <g id="text_16">
      <!-- 300000 -->
      <g transform="translate(25.045 45.80841) scale(0.1 -0.1)">
       <use xlink:href="#DejaVuSans-33"/>
       <use xlink:href="#DejaVuSans-30" transform="translate(63.623047 0)"/>
       <use xlink:href="#DejaVuSans-30" transform="translate(127.246094 0)"/>
       <use xlink:href="#DejaVuSans-30" transform="translate(190.869141 0)"/>
       <use xlink:href="#DejaVuSans-30" transform="translate(254.492188 0)"/>
       <use xlink:href="#DejaVuSans-30" transform="translate(318.115234 0)"/>
      </g>
     </g>
    </g>
    <g id="text_17">
     <!-- Total Wealth -->
     <g transform="translate(18.965312 238.314219) rotate(-90) scale(0.1 -0.1)">
      <defs>
       <path id="DejaVuSans-54" d="M -19 4666 
L 3928 4666 
L 3928 4134 
L 2272 4134 
L 2272 0 
L 1638 0 
L 1638 4134 
L -19 4134 
L -19 4666 
z
" transform="scale(0.015625)"/>
       <path id="DejaVuSans-6f" d="M 1959 3097 
Q 1497 3097 1228 2736 
Q 959 2375 959 1747 
Q 959 1119 1226 758 
Q 1494 397 1959 397 
Q 2419 397 2687 759 
Q 2956 1122 2956 1747 
Q 2956 2369 2687 2733 
Q 2419 3097 1959 3097 
z
M 1959 3584 
Q 2709 3584 3137 3096 
Q 3566 2609 3566 1747 
Q 3566 888 3137 398 
Q 2709 -91 1959 -91 
Q 1206 -91 779 398 
Q 353 888 353 1747 
Q 353 2609 779 3096 
Q 1206 3584 1959 3584 
z
" transform="scale(0.015625)"/>
       <path id="DejaVuSans-6c" d="M 603 4863 
L 1178 4863 
L 1178 0 
L 603 0 
L 603 4863 
z
" transform="scale(0.015625)"/>
       <path id="DejaVuSans-20" transform="scale(0.015625)"/>
       <path id="DejaVuSans-57" d="M 213 4666 
L 850 4666 
L 1831 722 
L 2809 4666 
L 3519 4666 
L 4500 722 
L 5478 4666 
L 6119 4666 
L 4947 0 
L 4153 0 
L 3169 4050 
L 2175 0 
L 1381 0 
L 213 4666 
z
" transform="scale(0.015625)"/>
       <path id="DejaVuSans-68" d="M 3513 2113 
L 3513 0 
L 2938 0 
L 2938 2094 
Q 2938 2591 2744 2837 
Q 2550 3084 2163 3084 
Q 1697 3084 1428 2787 
Q 1159 2491 1159 1978 
L 1159 0 
L 581 0 
L 581 4863 
L 1159 4863 
L 1159 2956 
Q 1366 3272 1645 3428 
Q 1925 3584 2291 3584 
Q 2894 3584 3203 3211 
Q 3513 2838 3513 2113 
z
" transform="scale(0.015625)"/>
      </defs>
      <use xlink:href="#DejaVuSans-54"/>
      <use xlink:href="#DejaVuSans-6f" transform="translate(44.083984 0)"/>
      <use xlink:href="#DejaVuSans-74" transform="translate(105.265625 0)"/>
      <use xlink:href="#DejaVuSans-61" transform="translate(144.474609 0)"/>
      <use xlink:href="#DejaVuSans-6c" transform="translate(205.753906 0)"/>
      <use xlink:href="#DejaVuSans-20" transform="translate(233.537109 0)"/>
      <use xlink:href="#DejaVuSans-57" transform="translate(265.324219 0)"/>
      <use xlink:href="#DejaVuSans-65" transform="translate(358.326172 0)"/>
      <use xlink:href="#DejaVuSans-61" transform="translate(419.849609 0)"/>
      <use xlink:href="#DejaVuSans-6c" transform="translate(481.128906 0)"/>
      <use xlink:href="#DejaVuSans-74" transform="translate(508.912109 0)"/>
      <use xlink:href="#DejaVuSans-68" transform="translate(548.121094 0)"/>
     </g>
    </g>
   </g>
   <g id="line2d_46">
    <path d="M 70.22 351.359653 
L 75.58958 345.883445 
L 80.95916 348.714053 
L 86.328739 352.599063 
L 91.698319 347.921699 
L 97.067899 346.117874 
L 102.437479 339.891507 
L 107.807059 340.584792 
L 113.176639 337.387491 
L 118.546218 344.04706 
L 123.915798 336.529937 
L 129.285378 335.981078 
L 134.654958 328.012275 
L 140.024538 326.36931 
L 145.394118 324.324035 
L 150.763697 321.06203 
L 156.133277 325.101166 
L 161.502857 324.049474 
L 166.872437 320.801039 
L 172.242017 317.217177 
L 177.611597 314.085788 
L 182.981176 307.533624 
L 188.350756 301.290511 
L 193.720336 299.251347 
L 199.089916 295.849908 
L 204.459496 298.123654 
L 209.829076 294.970391 
L 215.198655 286.776687 
L 220.568235 276.949487 
L 225.937815 282.536576 
L 231.307395 287.71514 
L 236.676975 283.347779 
L 242.046555 272.342026 
L 247.416134 264.571792 
L 252.785714 272.590725 
L 258.155294 272.94814 
L 263.524874 283.877762 
L 268.894454 288.009767 
L 274.264034 288.481358 
L 279.633613 273.631943 
L 285.003193 272.184916 
L 290.372773 288.435281 
L 295.742353 284.85481 
L 301.111933 283.723699 
L 306.481513 291.447452 
L 311.851092 332.894956 
L 317.220672 346.645233 
L 322.590252 343.23811 
L 327.959832 359.091915 
L 333.329412 373.011304 
L 338.698992 360.554308 
L 344.068571 338.150966 
L 349.438151 324.652378 
L 354.807731 328.364856 
L 360.177311 312.856407 
L 365.546891 301.562113 
L 370.916471 293.320084 
L 376.28605 298.287109 
L 381.65563 280.645429 
L 387.02521 277.886509 
L 392.39479 286.097016 
L 397.76437 278.14763 
L 403.13395 263.137937 
L 408.503529 256.650002 
L 413.873109 272.415532 
L 419.242689 281.148215 
L 424.612269 264.498489 
L 429.981849 271.211052 
L 435.351429 254.478003 
L 440.721008 244.974767 
L 446.090588 244.07297 
L 451.460168 227.891793 
L 456.829748 221.462038 
L 462.199328 214.108663 
L 467.568908 210.475261 
L 472.938487 200.939655 
L 478.308067 203.453686 
L 483.677647 209.745342 
L 489.047227 213.65372 
L 494.416807 225.494938 
L 499.786387 249.119597 
L 505.155966 223.806925 
L 510.525546 225.236858 
L 515.895126 219.071251 
L 521.264706 207.074438 
L 526.634286 198.005086 
L 532.003866 188.199402 
L 537.373445 195.194505 
L 542.743025 210.241853 
L 548.112605 196.51313 
L 553.482185 190.685043 
L 558.851765 188.034471 
L 564.221345 175.307545 
L 569.590924 178.611297 
L 574.960504 179.423057 
L 580.330084 171.711845 
L 585.699664 155.140108 
L 591.069244 147.905703 
L 596.438824 131.127468 
L 601.808403 121.921746 
L 607.177983 117.099671 
L 612.547563 122.134805 
L 617.917143 110.111725 
L 623.286723 123.726681 
L 628.656303 117.475521 
L 634.025882 97.633426 
L 639.395462 89.474968 
L 644.765042 84.473116 
L 650.134622 99.725788 
L 655.504202 80.78352 
L 660.873782 73.438137 
L 666.243361 65.068889 
L 671.612941 60.810108 
L 676.982521 51.716054 
L 682.352101 59.961936 
L 687.721681 46.471996 
L 693.091261 56.870686 
L 698.46084 50.832019 
L 703.83042 42.012727 
L 709.2 44.327317 
" clip-path="url(#pb7c404eec6)" style="fill: none; stroke: #1f77b4; stroke-width: 1.5; stroke-linecap: square"/>
   </g>
   <g id="line2d_47">
    <path d="M 70.22 355.510924 
L 75.58958 347.150248 
L 80.95916 352.781187 
L 86.328739 349.870612 
L 91.698319 345.299895 
L 97.067899 343.759602 
L 102.437479 340.699872 
L 107.807059 345.490896 
L 113.176639 345.359552 
L 118.546218 347.837194 
L 123.915798 343.826345 
L 129.285378 344.376354 
L 134.654958 340.452473 
L 140.024538 337.48526 
L 145.394118 334.327641 
L 150.763697 334.523758 
L 156.133277 334.461624 
L 161.502857 332.363634 
L 166.872437 329.98256 
L 172.242017 325.714903 
L 177.611597 323.285112 
L 182.981176 316.933585 
L 188.350756 313.210104 
L 193.720336 312.601991 
L 199.089916 309.873494 
L 204.459496 314.19776 
L 209.829076 315.726196 
L 215.198655 310.520184 
L 220.568235 308.538055 
L 225.937815 315.045877 
L 231.307395 318.073789 
L 236.676975 314.708019 
L 242.046555 300.755186 
L 247.416134 299.06813 
L 252.785714 299.828051 
L 258.155294 299.228403 
L 263.524874 307.683612 
L 268.894454 307.525178 
L 274.264034 304.339225 
L 279.633613 292.620091 
L 285.003193 290.132508 
L 290.372773 304.694006 
L 295.742353 303.013896 
L 301.111933 301.791877 
L 306.481513 310.946257 
L 311.851092 339.912248 
L 317.220672 343.168385 
L 322.590252 339.121228 
L 327.959832 353.729016 
L 333.329412 364.24072 
L 338.698992 355.740893 
L 344.068571 356.760608 
L 349.438151 350.266286 
L 354.807731 350.595809 
L 360.177311 343.584239 
L 365.546891 341.787058 
L 370.916471 342.153674 
L 376.28605 340.350507 
L 381.65563 328.093311 
L 387.02521 329.442228 
L 392.39479 334.508853 
L 397.76437 331.542139 
L 403.13395 327.931942 
L 408.503529 327.508097 
L 413.873109 337.19636 
L 419.242689 341.358417 
L 424.612269 332.673995 
L 429.981849 333.414736 
L 435.351429 323.661192 
L 440.721008 318.04572 
L 446.090588 317.044864 
L 451.460168 315.587832 
L 456.829748 311.375813 
L 462.199328 310.09319 
L 467.568908 308.744301 
L 472.938487 301.299727 
L 478.308067 298.886942 
L 483.677647 298.824566 
L 489.047227 297.412154 
L 494.416807 296.409922 
L 499.786387 296.106477 
L 505.155966 284.572623 
L 510.525546 277.70281 
L 515.895126 271.243299 
L 521.264706 271.495602 
L 526.634286 272.601683 
L 532.003866 268.682904 
L 537.373445 271.091015 
L 542.743025 266.816268 
L 548.112605 255.333728 
L 553.482185 255.992824 
L 558.851765 258.273876 
L 564.221345 250.764466 
L 569.590924 249.817877 
L 574.960504 253.669107 
L 580.330084 256.125886 
L 585.699664 241.115805 
L 591.069244 236.889483 
L 596.438824 220.515016 
L 601.808403 215.594545 
L 607.177983 228.7011 
L 612.547563 229.759564 
L 617.917143 219.624048 
L 623.286723 231.372643 
L 628.656303 225.269123 
L 634.025882 213.009089 
L 639.395462 209.794006 
L 644.765042 211.533408 
L 650.134622 224.992185 
L 655.504202 215.317289 
L 660.873782 208.564189 
L 666.243361 198.778062 
L 671.612941 199.204796 
L 676.982521 196.282683 
L 682.352101 205.286889 
L 687.721681 198.118263 
L 693.091261 196.512074 
L 698.46084 181.586989 
L 703.83042 173.263003 
L 709.2 172.84044 
" clip-path="url(#pb7c404eec6)" style="fill: none; stroke: #ff7f0e; stroke-width: 1.5; stroke-linecap: square"/>
   </g>
   <g id="line2d_48">
    <path d="M 70.22 355.182451 
L 75.58958 348.193183 
L 80.95916 353.56344 
L 86.328739 348.993065 
L 91.698319 343.877446 
L 97.067899 343.190292 
L 102.437479 339.464598 
L 107.807059 343.827101 
L 113.176639 343.241964 
L 118.546218 348.940021 
L 123.915798 345.110973 
L 129.285378 344.281865 
L 134.654958 338.20982 
L 140.024538 335.66972 
L 145.394118 332.300846 
L 150.763697 333.010308 
L 156.133277 334.340955 
L 161.502857 332.451751 
L 166.872437 327.59812 
L 172.242017 321.174267 
L 177.611597 319.242807 
L 182.981176 312.099305 
L 188.350756 305.30407 
L 193.720336 305.587286 
L 199.089916 301.878767 
L 204.459496 307.093204 
L 209.829076 309.279529 
L 215.198655 304.280206 
L 220.568235 303.782325 
L 225.937815 313.398212 
L 231.307395 319.144694 
L 236.676975 311.15217 
L 242.046555 300.572123 
L 247.416134 299.170712 
L 252.785714 302.693562 
L 258.155294 305.811331 
L 263.524874 315.264316 
L 268.894454 315.562125 
L 274.264034 311.636217 
L 279.633613 302.921985 
L 285.003193 301.656914 
L 290.372773 314.730469 
L 295.742353 312.2027 
L 301.111933 310.827356 
L 306.481513 318.045621 
L 311.851092 345.405376 
L 317.220672 349.331353 
L 322.590252 347.100535 
L 327.959832 358.467382 
L 333.329412 369.919556 
L 338.698992 361.693773 
L 344.068571 364.25597 
L 349.438151 357.273814 
L 354.807731 356.486246 
L 360.177311 349.813985 
L 365.546891 348.588853 
L 370.916471 347.823651 
L 376.28605 346.336835 
L 381.65563 334.857747 
L 387.02521 335.167855 
L 392.39479 339.301284 
L 397.76437 336.741662 
L 403.13395 333.015846 
L 408.503529 332.04848 
L 413.873109 341.763246 
L 419.242689 344.728725 
L 424.612269 335.986408 
L 429.981849 335.444941 
L 435.351429 326.569353 
L 440.721008 320.759166 
L 446.090588 319.659102 
L 451.460168 318.981276 
L 456.829748 317.884167 
L 462.199328 315.906155 
L 467.568908 313.563576 
L 472.938487 306.794988 
L 478.308067 303.562157 
L 483.677647 303.025189 
L 489.047227 302.099275 
L 494.416807 298.584391 
L 499.786387 298.98312 
L 505.155966 288.92067 
L 510.525546 283.071532 
L 515.895126 276.108846 
L 521.264706 277.694305 
L 526.634286 279.016792 
L 532.003866 275.632261 
L 537.373445 277.19309 
L 542.743025 273.675306 
L 548.112605 263.091595 
L 553.482185 261.812548 
L 558.851765 265.701061 
L 564.221345 259.988434 
L 569.590924 258.749581 
L 574.960504 261.79989 
L 580.330084 263.809555 
L 585.699664 249.249891 
L 591.069244 244.438045 
L 596.438824 229.560018 
L 601.808403 223.123765 
L 607.177983 236.128026 
L 612.547563 235.8343 
L 617.917143 227.474652 
L 623.286723 241.601568 
L 628.656303 234.900519 
L 634.025882 220.990461 
L 639.395462 220.109612 
L 644.765042 222.179567 
L 650.134622 231.913595 
L 655.504202 223.747823 
L 660.873782 218.164158 
L 666.243361 209.709988 
L 671.612941 212.648422 
L 676.982521 207.757313 
L 682.352101 217.310177 
L 687.721681 208.269203 
L 693.091261 211.395605 
L 698.46084 196.914071 
L 703.83042 192.306971 
L 709.2 188.39471 
" clip-path="url(#pb7c404eec6)" style="fill: none; stroke: #2ca02c; stroke-width: 1.5; stroke-linecap: square"/>
   </g>
   <g id="line2d_49">
    <path d="M 70.22 356.365318 
L 75.58958 349.623401 
L 80.95916 354.683592 
L 86.328739 349.954872 
L 91.698319 344.811876 
L 97.067899 343.793248 
L 102.437479 339.991164 
L 107.807059 344.474299 
L 113.176639 343.560421 
L 118.546218 349.288831 
L 123.915798 345.442191 
L 129.285378 344.830388 
L 134.654958 338.351745 
L 140.024538 335.865041 
L 145.394118 331.941546 
L 150.763697 332.970732 
L 156.133277 334.539866 
L 161.502857 332.661113 
L 166.872437 327.881744 
L 172.242017 322.058489 
L 177.611597 320.20081 
L 182.981176 313.165671 
L 188.350756 306.137938 
L 193.720336 306.758678 
L 199.089916 303.090719 
L 204.459496 307.825661 
L 209.829076 309.161443 
L 215.198655 303.674192 
L 220.568235 302.354423 
L 225.937815 311.89456 
L 231.307395 317.611802 
L 236.676975 309.099188 
L 242.046555 298.25281 
L 247.416134 295.655186 
L 252.785714 299.488045 
L 258.155294 302.091586 
L 263.524874 312.256588 
L 268.894454 312.833047 
L 274.264034 309.119212 
L 279.633613 301.987522 
L 285.003193 302.277375 
L 290.372773 314.908238 
L 295.742353 314.353387 
L 301.111933 313.336337 
L 306.481513 320.971194 
L 311.851092 348.68887 
L 317.220672 350.194673 
L 322.590252 348.746323 
L 327.959832 359.871143 
L 333.329412 371.540065 
L 338.698992 363.680791 
L 344.068571 365.883612 
L 349.438151 358.765084 
L 354.807731 357.490513 
L 360.177311 351.431738 
L 365.546891 350.505899 
L 370.916471 350.324981 
L 376.28605 349.308525 
L 381.65563 337.352395 
L 387.02521 337.628817 
L 392.39479 341.274423 
L 397.76437 339.482073 
L 403.13395 335.056903 
L 408.503529 335.138099 
L 413.873109 345.678498 
L 419.242689 349.381903 
L 424.612269 340.734906 
L 429.981849 339.875482 
L 435.351429 331.384067 
L 440.721008 325.535108 
L 446.090588 323.725554 
L 451.460168 321.944417 
L 456.829748 319.740001 
L 462.199328 317.551106 
L 467.568908 315.255715 
L 472.938487 308.283101 
L 478.308067 306.261723 
L 483.677647 306.536643 
L 489.047227 305.962958 
L 494.416807 303.140904 
L 499.786387 305.28799 
L 505.155966 294.295489 
L 510.525546 289.078532 
L 515.895126 282.110346 
L 521.264706 282.995004 
L 526.634286 284.412885 
L 532.003866 280.509755 
L 537.373445 283.091372 
L 542.743025 278.513382 
L 548.112605 267.077728 
L 553.482185 264.194046 
L 558.851765 268.157687 
L 564.221345 261.789414 
L 569.590924 260.79522 
L 574.960504 265.157651 
L 580.330084 269.084303 
L 585.699664 255.318418 
L 591.069244 250.644403 
L 596.438824 236.437955 
L 601.808403 230.634678 
L 607.177983 241.384965 
L 612.547563 241.332547 
L 617.917143 234.085276 
L 623.286723 246.993955 
L 628.656303 240.365504 
L 634.025882 226.632816 
L 639.395462 226.290241 
L 644.765042 228.886977 
L 650.134622 242.010965 
L 655.504202 235.002888 
L 660.873782 229.10763 
L 666.243361 221.075301 
L 671.612941 223.570211 
L 676.982521 218.617339 
L 682.352101 226.713 
L 687.721681 218.232887 
L 693.091261 219.39056 
L 698.46084 204.521346 
L 703.83042 200.089953 
L 709.2 197.242593 
" clip-path="url(#pb7c404eec6)" style="fill: none; stroke: #d62728; stroke-width: 1.5; stroke-linecap: square"/>
   </g>
   <g id="line2d_50">
    <path d="M 70.22 353.085301 
L 75.58958 347.519981 
L 80.95916 351.06859 
L 86.328739 351.362878 
L 91.698319 346.575332 
L 97.067899 345.207287 
L 102.437479 340.35006 
L 107.807059 342.498668 
L 113.176639 339.992392 
L 118.546218 346.271408 
L 123.915798 340.233815 
L 129.285378 339.173251 
L 134.654958 331.45362 
L 140.024538 329.726639 
L 145.394118 327.088944 
L 150.763697 325.009478 
L 156.133277 328.419546 
L 161.502857 326.628429 
L 166.872437 322.94678 
L 172.242017 318.841881 
L 177.611597 316.359319 
L 182.981176 310.097673 
L 188.350756 303.739196 
L 193.720336 302.372439 
L 199.089916 298.877472 
L 204.459496 302.415356 
L 209.829076 300.851878 
L 215.198655 294.001394 
L 220.568235 287.764467 
L 225.937815 294.868975 
L 231.307395 300.287445 
L 236.676975 294.998884 
L 242.046555 285.020606 
L 247.416134 279.841137 
L 252.785714 285.667259 
L 258.155294 288.134741 
L 263.524874 296.257953 
L 268.894454 300.353969 
L 274.264034 299.185921 
L 279.633613 288.407705 
L 285.003193 287.049794 
L 290.372773 301.810915 
L 295.742353 296.954352 
L 301.111933 295.84423 
L 306.481513 301.392194 
L 311.851092 336.509196 
L 317.220672 347.271899 
L 322.590252 343.824023 
L 327.959832 359.065972 
L 333.329412 373.467273 
L 338.698992 362.414332 
L 344.068571 349.898699 
L 349.438151 339.003302 
L 354.807731 341.317534 
L 360.177311 330.279123 
L 365.546891 324.144959 
L 370.916471 318.406992 
L 376.28605 320.132631 
L 381.65563 304.914806 
L 387.02521 303.043129 
L 392.39479 309.909024 
L 397.76437 304.535963 
L 403.13395 294.28065 
L 408.503529 290.709676 
L 413.873109 303.518981 
L 419.242689 308.866799 
L 424.612269 296.429106 
L 429.981849 299.323307 
L 435.351429 285.682262 
L 440.721008 278.575367 
L 446.090588 278.302675 
L 451.460168 268.116054 
L 456.829748 264.228455 
L 462.199328 258.341066 
L 467.568908 254.471872 
L 472.938487 245.406872 
L 478.308067 245.58003 
L 483.677647 249.607709 
L 489.047227 251.537774 
L 494.416807 256.473487 
L 499.786387 270.082822 
L 505.155966 251.76353 
L 510.525546 249.57771 
L 515.895126 243.484204 
L 521.264706 239.546655 
L 526.634286 234.51812 
L 532.003866 227.824853 
L 537.373445 231.109366 
L 542.743025 239.114007 
L 548.112605 226.083999 
L 553.482185 221.949612 
L 558.851765 222.479565 
L 564.221345 211.891472 
L 569.590924 214.662101 
L 574.960504 217.419542 
L 580.330084 215.820912 
L 585.699664 201.216422 
L 591.069244 194.070751 
L 596.438824 176.852209 
L 601.808403 169.932621 
L 607.177983 171.472333 
L 612.547563 173.255258 
L 617.917143 162.785113 
L 623.286723 176.283734 
L 628.656303 170.400908 
L 634.025882 152.718763 
L 639.395462 148.526482 
L 644.765042 146.042901 
L 650.134622 160.247756 
L 655.504202 144.785911 
L 660.873782 137.930679 
L 666.243361 128.517653 
L 671.612941 127.619068 
L 676.982521 120.39549 
L 682.352101 128.006867 
L 687.721681 116.139195 
L 693.091261 123.583451 
L 698.46084 117.160643 
L 703.83042 108.689488 
L 709.2 109.8714 
" clip-path="url(#pb7c404eec6)" style="fill: none; stroke: #9467bd; stroke-width: 1.5; stroke-linecap: square"/>
   </g>
   <g id="line2d_51">
    <path d="M 70.22 355.194615 
L 75.58958 347.986874 
L 80.95916 353.4044 
L 86.328739 349.002572 
L 91.698319 343.948001 
L 97.067899 343.110194 
L 102.437479 339.225411 
L 107.807059 343.570683 
L 113.176639 342.702721 
L 118.546218 348.128448 
L 123.915798 344.340378 
L 129.285378 343.775713 
L 134.654958 337.347656 
L 140.024538 334.775137 
L 145.394118 331.461988 
L 150.763697 331.858253 
L 156.133277 333.06218 
L 161.502857 331.150666 
L 166.872437 325.861738 
L 172.242017 319.406105 
L 177.611597 317.491727 
L 182.981176 310.334334 
L 188.350756 303.515222 
L 193.720336 304.041529 
L 199.089916 299.930582 
L 204.459496 305.4585 
L 209.829076 307.719984 
L 215.198655 302.627622 
L 220.568235 302.308804 
L 225.937815 312.40241 
L 231.307395 318.247613 
L 236.676975 310.130402 
L 242.046555 299.61027 
L 247.416134 298.684977 
L 252.785714 302.366683 
L 258.155294 306.099845 
L 263.524874 317.285802 
L 268.894454 317.573207 
L 274.264034 313.928207 
L 279.633613 307.001446 
L 285.003193 306.301662 
L 290.372773 319.414542 
L 295.742353 317.648539 
L 301.111933 315.504829 
L 306.481513 321.867845 
L 311.851092 346.417495 
L 317.220672 348.915152 
L 322.590252 347.122721 
L 327.959832 358.633244 
L 333.329412 370.830624 
L 338.698992 362.869768 
L 344.068571 364.345369 
L 349.438151 357.326201 
L 354.807731 356.359864 
L 360.177311 350.351024 
L 365.546891 349.439391 
L 370.916471 348.475106 
L 376.28605 347.413394 
L 381.65563 335.908368 
L 387.02521 336.147431 
L 392.39479 340.171632 
L 397.76437 337.77467 
L 403.13395 333.844465 
L 408.503529 332.815843 
L 413.873109 342.198611 
L 419.242689 345.020167 
L 424.612269 336.197727 
L 429.981849 335.741757 
L 435.351429 326.76842 
L 440.721008 321.074969 
L 446.090588 319.818696 
L 451.460168 318.805221 
L 456.829748 318.070641 
L 462.199328 316.022323 
L 467.568908 314.173687 
L 472.938487 307.285015 
L 478.308067 304.089854 
L 483.677647 303.560046 
L 489.047227 302.72405 
L 494.416807 298.944175 
L 499.786387 300.057173 
L 505.155966 290.011292 
L 510.525546 284.23436 
L 515.895126 277.086866 
L 521.264706 278.754058 
L 526.634286 280.133811 
L 532.003866 276.927163 
L 537.373445 278.79907 
L 542.743025 275.226688 
L 548.112605 264.671436 
L 553.482185 263.122242 
L 558.851765 266.886502 
L 564.221345 261.257736 
L 569.590924 259.232478 
L 574.960504 262.341856 
L 580.330084 264.55011 
L 585.699664 250.080249 
L 591.069244 245.116563 
L 596.438824 230.235965 
L 601.808403 223.672608 
L 607.177983 236.646806 
L 612.547563 235.970787 
L 617.917143 227.435087 
L 623.286723 241.465466 
L 628.656303 235.05421 
L 634.025882 221.326542 
L 639.395462 220.26561 
L 644.765042 222.477311 
L 650.134622 232.466709 
L 655.504202 225.036223 
L 660.873782 219.334425 
L 666.243361 210.799779 
L 671.612941 213.415881 
L 676.982521 208.610587 
L 682.352101 218.227724 
L 687.721681 209.136155 
L 693.091261 212.369101 
L 698.46084 198.66998 
L 703.83042 193.42523 
L 709.2 189.728664 
" clip-path="url(#pb7c404eec6)" style="fill: none; stroke: #8c564b; stroke-width: 1.5; stroke-linecap: square"/>
   </g>
   <g id="line2d_52">
    <path d="M 70.22 355.476536 
L 75.58958 348.608002 
L 80.95916 353.955465 
L 86.328739 349.296931 
L 91.698319 344.086802 
L 97.067899 343.282841 
L 102.437479 339.595326 
L 107.807059 344.121876 
L 113.176639 343.460464 
L 118.546218 349.175466 
L 123.915798 345.355137 
L 129.285378 344.390097 
L 134.654958 338.105878 
L 140.024538 335.333701 
L 145.394118 331.772107 
L 150.763697 332.761077 
L 156.133277 334.246225 
L 161.502857 332.263341 
L 166.872437 327.361389 
L 172.242017 320.786756 
L 177.611597 318.91727 
L 182.981176 311.633554 
L 188.350756 304.680706 
L 193.720336 305.190432 
L 199.089916 301.297304 
L 204.459496 306.601287 
L 209.829076 308.54161 
L 215.198655 303.400995 
L 220.568235 302.738815 
L 225.937815 312.632299 
L 231.307395 318.666294 
L 236.676975 310.195662 
L 242.046555 299.589166 
L 247.416134 297.832287 
L 252.785714 301.696435 
L 258.155294 304.728641 
L 263.524874 314.532765 
L 268.894454 314.818838 
L 274.264034 311.111745 
L 279.633613 302.74637 
L 285.003193 301.825418 
L 290.372773 314.998464 
L 295.742353 313.003443 
L 301.111933 311.804713 
L 306.481513 319.249435 
L 311.851092 346.787659 
L 317.220672 350.308097 
L 322.590252 348.093149 
L 327.959832 359.476039 
L 333.329412 370.856126 
L 338.698992 362.740405 
L 344.068571 365.248122 
L 349.438151 358.273156 
L 354.807731 357.33831 
L 360.177311 351.119247 
L 365.546891 349.98339 
L 370.916471 349.592868 
L 376.28605 348.244842 
L 381.65563 336.641443 
L 387.02521 336.947214 
L 392.39479 340.625825 
L 397.76437 338.368433 
L 403.13395 334.479505 
L 408.503529 333.920775 
L 413.873109 343.797233 
L 419.242689 347.258888 
L 424.612269 338.587027 
L 429.981849 337.883366 
L 435.351429 329.330048 
L 440.721008 323.603353 
L 446.090588 322.314307 
L 451.460168 321.243772 
L 456.829748 319.79671 
L 462.199328 318.118399 
L 467.568908 316.075299 
L 472.938487 309.15355 
L 478.308067 306.305175 
L 483.677647 306.363429 
L 489.047227 305.874281 
L 494.416807 302.330504 
L 499.786387 303.024224 
L 505.155966 292.909982 
L 510.525546 287.264905 
L 515.895126 280.37464 
L 521.264706 281.623103 
L 526.634286 283.015301 
L 532.003866 279.749212 
L 537.373445 281.798862 
L 542.743025 277.725307 
L 548.112605 267.114112 
L 553.482185 265.260793 
L 558.851765 269.226198 
L 564.221345 263.523174 
L 569.590924 262.397403 
L 574.960504 265.628307 
L 580.330084 268.149472 
L 585.699664 253.945367 
L 591.069244 248.945756 
L 596.438824 233.944263 
L 601.808403 227.588818 
L 607.177983 239.166016 
L 612.547563 238.775083 
L 617.917143 230.901724 
L 623.286723 244.4092 
L 628.656303 237.335349 
L 634.025882 223.398166 
L 639.395462 222.571366 
L 644.765042 224.956023 
L 650.134622 236.373206 
L 655.504202 228.674829 
L 660.873782 222.94561 
L 666.243361 215.761469 
L 671.612941 218.264703 
L 676.982521 213.50388 
L 682.352101 222.487927 
L 687.721681 213.625673 
L 693.091261 216.253314 
L 698.46084 201.813906 
L 703.83042 196.953843 
L 709.2 193.120791 
" clip-path="url(#pb7c404eec6)" style="fill: none; stroke: #e377c2; stroke-width: 1.5; stroke-linecap: square"/>
   </g>
   <g id="line2d_53">
    <path d="M 70.22 353.226205 
L 75.58958 347.720839 
L 80.95916 351.258311 
L 86.328739 351.567025 
L 91.698319 346.827403 
L 97.067899 345.351639 
L 102.437479 340.507111 
L 107.807059 342.684202 
L 113.176639 340.175432 
L 118.546218 346.366754 
L 123.915798 340.310189 
L 129.285378 339.291899 
L 134.654958 331.513959 
L 140.024538 329.668457 
L 145.394118 326.966532 
L 150.763697 325.003624 
L 156.133277 328.391373 
L 161.502857 326.534923 
L 166.872437 322.902646 
L 172.242017 318.764253 
L 177.611597 316.259791 
L 182.981176 309.988201 
L 188.350756 303.696649 
L 193.720336 302.365482 
L 199.089916 298.857494 
L 204.459496 302.324935 
L 209.829076 300.702296 
L 215.198655 293.829208 
L 220.568235 287.555544 
L 225.937815 294.620451 
L 231.307395 300.04992 
L 236.676975 294.607849 
L 242.046555 284.472678 
L 247.416134 279.029146 
L 252.785714 284.903354 
L 258.155294 287.191788 
L 263.524874 295.334617 
L 268.894454 299.487835 
L 274.264034 298.473083 
L 279.633613 287.874805 
L 285.003193 286.542298 
L 290.372773 301.332377 
L 295.742353 296.660131 
L 301.111933 295.583561 
L 306.481513 301.316232 
L 311.851092 336.485219 
L 317.220672 346.998631 
L 322.590252 343.531404 
L 327.959832 358.755584 
L 333.329412 373.229438 
L 338.698992 362.171242 
L 344.068571 349.763917 
L 349.438151 338.967592 
L 354.807731 341.179652 
L 360.177311 330.271047 
L 365.546891 324.255552 
L 370.916471 318.650301 
L 376.28605 320.310099 
L 381.65563 305.089289 
L 387.02521 303.287932 
L 392.39479 310.090093 
L 397.76437 304.792795 
L 403.13395 294.652411 
L 408.503529 291.249264 
L 413.873109 304.082507 
L 419.242689 309.449385 
L 424.612269 297.090505 
L 429.981849 299.849851 
L 435.351429 286.297482 
L 440.721008 279.211272 
L 446.090588 278.983615 
L 451.460168 268.870092 
L 456.829748 264.955493 
L 462.199328 259.097014 
L 467.568908 255.272552 
L 472.938487 246.196879 
L 478.308067 246.398404 
L 483.677647 250.41899 
L 489.047227 252.368579 
L 494.416807 257.145117 
L 499.786387 270.670399 
L 505.155966 252.407192 
L 510.525546 250.177252 
L 515.895126 244.028018 
L 521.264706 240.149064 
L 526.634286 235.233989 
L 532.003866 228.595268 
L 537.373445 231.933077 
L 542.743025 239.749877 
L 548.112605 226.683155 
L 553.482185 222.538766 
L 558.851765 223.10777 
L 564.221345 212.524805 
L 569.590924 215.249999 
L 574.960504 218.081043 
L 580.330084 216.579044 
L 585.699664 202.024944 
L 591.069244 194.923229 
L 596.438824 177.798584 
L 601.808403 170.940847 
L 607.177983 172.406728 
L 612.547563 174.173738 
L 617.917143 163.706605 
L 623.286723 177.198721 
L 628.656303 171.299694 
L 634.025882 153.684498 
L 639.395462 149.53995 
L 644.765042 147.188843 
L 650.134622 161.501379 
L 655.504202 146.109698 
L 660.873782 139.245291 
L 666.243361 129.876218 
L 671.612941 129.027491 
L 676.982521 121.795562 
L 682.352101 129.325553 
L 687.721681 117.486404 
L 693.091261 124.823283 
L 698.46084 118.354628 
L 703.83042 109.969421 
L 709.2 111.148195 
" clip-path="url(#pb7c404eec6)" style="fill: none; stroke: #7f7f7f; stroke-width: 1.5; stroke-linecap: square"/>
   </g>
   <g id="patch_3">
    <path d="M 70.22 390.04 
L 70.22 25.44 
" style="fill: none; stroke: #000000; stroke-width: 0.8; stroke-linejoin: miter; stroke-linecap: square"/>
   </g>
   <g id="patch_4">
    <path d="M 709.2 390.04 
L 709.2 25.44 
" style="fill: none; stroke: #000000; stroke-width: 0.8; stroke-linejoin: miter; stroke-linecap: square"/>
   </g>
   <g id="patch_5">
    <path d="M 70.22 390.04 
L 709.2 390.04 
" style="fill: none; stroke: #000000; stroke-width: 0.8; stroke-linejoin: miter; stroke-linecap: square"/>
   </g>
   <g id="patch_6">
    <path d="M 70.22 25.44 
L 709.2 25.44 
" style="fill: none; stroke: #000000; stroke-width: 0.8; stroke-linejoin: miter; stroke-linecap: square"/>
   </g>
   <g id="text_18">
    <!-- Portfolio Wealth Evolution -->
    <g transform="translate(312.47125 19.44) scale(0.12 -0.12)">
     <defs>
      <path id="DejaVuSans-50" d="M 1259 4147 
L 1259 2394 
L 2053 2394 
Q 2494 2394 2734 2622 
Q 2975 2850 2975 3272 
Q 2975 3691 2734 3919 
Q 2494 4147 2053 4147 
L 1259 4147 
z
M 628 4666 
L 2053 4666 
Q 2838 4666 3239 4311 
Q 3641 3956 3641 3272 
Q 3641 2581 3239 2228 
Q 2838 1875 2053 1875 
L 1259 1875 
L 1259 0 
L 628 0 
L 628 4666 
z
" transform="scale(0.015625)"/>
      <path id="DejaVuSans-72" d="M 2631 2963 
Q 2534 3019 2420 3045 
Q 2306 3072 2169 3072 
Q 1681 3072 1420 2755 
Q 1159 2438 1159 1844 
L 1159 0 
L 581 0 
L 581 3500 
L 1159 3500 
L 1159 2956 
Q 1341 3275 1631 3429 
Q 1922 3584 2338 3584 
Q 2397 3584 2469 3576 
Q 2541 3569 2628 3553 
L 2631 2963 
z
" transform="scale(0.015625)"/>
      <path id="DejaVuSans-66" d="M 2375 4863 
L 2375 4384 
L 1825 4384 
Q 1516 4384 1395 4259 
Q 1275 4134 1275 3809 
L 1275 3500 
L 2222 3500 
L 2222 3053 
L 1275 3053 
L 1275 0 
L 697 0 
L 697 3053 
L 147 3053 
L 147 3500 
L 697 3500 
L 697 3744 
Q 697 4328 969 4595 
Q 1241 4863 1831 4863 
L 2375 4863 
z
" transform="scale(0.015625)"/>
      <path id="DejaVuSans-69" d="M 603 3500 
L 1178 3500 
L 1178 0 
L 603 0 
L 603 3500 
z
M 603 4863 
L 1178 4863 
L 1178 4134 
L 603 4134 
L 603 4863 
z
" transform="scale(0.015625)"/>
      <path id="DejaVuSans-45" d="M 628 4666 
L 3578 4666 
L 3578 4134 
L 1259 4134 
L 1259 2753 
L 3481 2753 
L 3481 2222 
L 1259 2222 
L 1259 531 
L 3634 531 
L 3634 0 
L 628 0 
L 628 4666 
z
" transform="scale(0.015625)"/>
      <path id="DejaVuSans-76" d="M 191 3500 
L 800 3500 
L 1894 563 
L 2988 3500 
L 3597 3500 
L 2284 0 
L 1503 0 
L 191 3500 
z
" transform="scale(0.015625)"/>
      <path id="DejaVuSans-75" d="M 544 1381 
L 544 3500 
L 1119 3500 
L 1119 1403 
Q 1119 906 1312 657 
Q 1506 409 1894 409 
Q 2359 409 2629 706 
Q 2900 1003 2900 1516 
L 2900 3500 
L 3475 3500 
L 3475 0 
L 2900 0 
L 2900 538 
Q 2691 219 2414 64 
Q 2138 -91 1772 -91 
Q 1169 -91 856 284 
Q 544 659 544 1381 
z
M 1991 3584 
L 1991 3584 
z
" transform="scale(0.015625)"/>
      <path id="DejaVuSans-6e" d="M 3513 2113 
L 3513 0 
L 2938 0 
L 2938 2094 
Q 2938 2591 2744 2837 
Q 2550 3084 2163 3084 
Q 1697 3084 1428 2787 
Q 1159 2491 1159 1978 
L 1159 0 
L 581 0 
L 581 3500 
L 1159 3500 
L 1159 2956 
Q 1366 3272 1645 3428 
Q 1925 3584 2291 3584 
Q 2894 3584 3203 3211 
Q 3513 2838 3513 2113 
z
" transform="scale(0.015625)"/>
     </defs>
     <use xlink:href="#DejaVuSans-50"/>
     <use xlink:href="#DejaVuSans-6f" transform="translate(56.677734 0)"/>
     <use xlink:href="#DejaVuSans-72" transform="translate(117.859375 0)"/>
     <use xlink:href="#DejaVuSans-74" transform="translate(158.972656 0)"/>
     <use xlink:href="#DejaVuSans-66" transform="translate(198.181641 0)"/>
     <use xlink:href="#DejaVuSans-6f" transform="translate(233.386719 0)"/>
     <use xlink:href="#DejaVuSans-6c" transform="translate(294.568359 0)"/>
     <use xlink:href="#DejaVuSans-69" transform="translate(322.351562 0)"/>
     <use xlink:href="#DejaVuSans-6f" transform="translate(350.134766 0)"/>
     <use xlink:href="#DejaVuSans-20" transform="translate(411.316406 0)"/>
     <use xlink:href="#DejaVuSans-57" transform="translate(443.103516 0)"/>
     <use xlink:href="#DejaVuSans-65" transform="translate(536.105469 0)"/>
     <use xlink:href="#DejaVuSans-61" transform="translate(597.628906 0)"/>
     <use xlink:href="#DejaVuSans-6c" transform="translate(658.908203 0)"/>
     <use xlink:href="#DejaVuSans-74" transform="translate(686.691406 0)"/>
     <use xlink:href="#DejaVuSans-68" transform="translate(725.900391 0)"/>
     <use xlink:href="#DejaVuSans-20" transform="translate(789.279297 0)"/>
     <use xlink:href="#DejaVuSans-45" transform="translate(821.066406 0)"/>
     <use xlink:href="#DejaVuSans-76" transform="translate(884.25 0)"/>
     <use xlink:href="#DejaVuSans-6f" transform="translate(943.429688 0)"/>
     <use xlink:href="#DejaVuSans-6c" transform="translate(1004.611328 0)"/>
     <use xlink:href="#DejaVuSans-75" transform="translate(1032.394531 0)"/>
     <use xlink:href="#DejaVuSans-74" transform="translate(1095.773438 0)"/>
     <use xlink:href="#DejaVuSans-69" transform="translate(1134.982422 0)"/>
     <use xlink:href="#DejaVuSans-6f" transform="translate(1162.765625 0)"/>
     <use xlink:href="#DejaVuSans-6e" transform="translate(1223.947266 0)"/>
    </g>
   </g>
   <g id="legend_1">
    <g id="patch_7">
     <path d="M 77.22 152.255625 
L 186.424688 152.255625 
Q 188.424688 152.255625 188.424688 150.255625 
L 188.424688 32.44 
Q 188.424688 30.44 186.424688 30.44 
L 77.22 30.44 
Q 75.22 30.44 75.22 32.44 
L 75.22 150.255625 
Q 75.22 152.255625 77.22 152.255625 
z
" style="fill: #ffffff; opacity: 0.8; stroke: #cccccc; stroke-linejoin: miter"/>
    </g>
    <g id="line2d_54">
     <path d="M 79.22 38.538437 
L 89.22 38.538437 
L 99.22 38.538437 
" style="fill: none; stroke: #1f77b4; stroke-width: 1.5; stroke-linecap: square"/>
    </g>
    <g id="text_19">
     <!-- EqualWeight -->
     <g transform="translate(107.22 42.038437) scale(0.1 -0.1)">
      <defs>
       <path id="DejaVuSans-71" d="M 947 1747 
Q 947 1113 1208 752 
Q 1469 391 1925 391 
Q 2381 391 2643 752 
Q 2906 1113 2906 1747 
Q 2906 2381 2643 2742 
Q 2381 3103 1925 3103 
Q 1469 3103 1208 2742 
Q 947 2381 947 1747 
z
M 2906 525 
Q 2725 213 2448 61 
Q 2172 -91 1784 -91 
Q 1150 -91 751 415 
Q 353 922 353 1747 
Q 353 2572 751 3078 
Q 1150 3584 1784 3584 
Q 2172 3584 2448 3432 
Q 2725 3281 2906 2969 
L 2906 3500 
L 3481 3500 
L 3481 -1331 
L 2906 -1331 
L 2906 525 
z
" transform="scale(0.015625)"/>
       <path id="DejaVuSans-67" d="M 2906 1791 
Q 2906 2416 2648 2759 
Q 2391 3103 1925 3103 
Q 1463 3103 1205 2759 
Q 947 2416 947 1791 
Q 947 1169 1205 825 
Q 1463 481 1925 481 
Q 2391 481 2648 825 
Q 2906 1169 2906 1791 
z
M 3481 434 
Q 3481 -459 3084 -895 
Q 2688 -1331 1869 -1331 
Q 1566 -1331 1297 -1286 
Q 1028 -1241 775 -1147 
L 775 -588 
Q 1028 -725 1275 -790 
Q 1522 -856 1778 -856 
Q 2344 -856 2625 -561 
Q 2906 -266 2906 331 
L 2906 616 
Q 2728 306 2450 153 
Q 2172 0 1784 0 
Q 1141 0 747 490 
Q 353 981 353 1791 
Q 353 2603 747 3093 
Q 1141 3584 1784 3584 
Q 2172 3584 2450 3431 
Q 2728 3278 2906 2969 
L 2906 3500 
L 3481 3500 
L 3481 434 
z
" transform="scale(0.015625)"/>
      </defs>
      <use xlink:href="#DejaVuSans-45"/>
      <use xlink:href="#DejaVuSans-71" transform="translate(63.183594 0)"/>
      <use xlink:href="#DejaVuSans-75" transform="translate(126.660156 0)"/>
      <use xlink:href="#DejaVuSans-61" transform="translate(190.039062 0)"/>
      <use xlink:href="#DejaVuSans-6c" transform="translate(251.318359 0)"/>
      <use xlink:href="#DejaVuSans-57" transform="translate(279.101562 0)"/>
      <use xlink:href="#DejaVuSans-65" transform="translate(372.103516 0)"/>
      <use xlink:href="#DejaVuSans-69" transform="translate(433.626953 0)"/>
      <use xlink:href="#DejaVuSans-67" transform="translate(461.410156 0)"/>
      <use xlink:href="#DejaVuSans-68" transform="translate(524.886719 0)"/>
      <use xlink:href="#DejaVuSans-74" transform="translate(588.265625 0)"/>
     </g>
    </g>
    <g id="line2d_55">
     <path d="M 79.22 53.216563 
L 89.22 53.216563 
L 99.22 53.216563 
" style="fill: none; stroke: #ff7f0e; stroke-width: 1.5; stroke-linecap: square"/>
    </g>
    <g id="text_20">
     <!-- HistMVO -->
     <g transform="translate(107.22 56.716563) scale(0.1 -0.1)">
      <defs>
       <path id="DejaVuSans-48" d="M 628 4666 
L 1259 4666 
L 1259 2753 
L 3553 2753 
L 3553 4666 
L 4184 4666 
L 4184 0 
L 3553 0 
L 3553 2222 
L 1259 2222 
L 1259 0 
L 628 0 
L 628 4666 
z
" transform="scale(0.015625)"/>
       <path id="DejaVuSans-73" d="M 2834 3397 
L 2834 2853 
Q 2591 2978 2328 3040 
Q 2066 3103 1784 3103 
Q 1356 3103 1142 2972 
Q 928 2841 928 2578 
Q 928 2378 1081 2264 
Q 1234 2150 1697 2047 
L 1894 2003 
Q 2506 1872 2764 1633 
Q 3022 1394 3022 966 
Q 3022 478 2636 193 
Q 2250 -91 1575 -91 
Q 1294 -91 989 -36 
Q 684 19 347 128 
L 347 722 
Q 666 556 975 473 
Q 1284 391 1588 391 
Q 1994 391 2212 530 
Q 2431 669 2431 922 
Q 2431 1156 2273 1281 
Q 2116 1406 1581 1522 
L 1381 1569 
Q 847 1681 609 1914 
Q 372 2147 372 2553 
Q 372 3047 722 3315 
Q 1072 3584 1716 3584 
Q 2034 3584 2315 3537 
Q 2597 3491 2834 3397 
z
" transform="scale(0.015625)"/>
       <path id="DejaVuSans-4d" d="M 628 4666 
L 1569 4666 
L 2759 1491 
L 3956 4666 
L 4897 4666 
L 4897 0 
L 4281 0 
L 4281 4097 
L 3078 897 
L 2444 897 
L 1241 4097 
L 1241 0 
L 628 0 
L 628 4666 
z
" transform="scale(0.015625)"/>
       <path id="DejaVuSans-56" d="M 1831 0 
L 50 4666 
L 709 4666 
L 2188 738 
L 3669 4666 
L 4325 4666 
L 2547 0 
L 1831 0 
z
" transform="scale(0.015625)"/>
       <path id="DejaVuSans-4f" d="M 2522 4238 
Q 1834 4238 1429 3725 
Q 1025 3213 1025 2328 
Q 1025 1447 1429 934 
Q 1834 422 2522 422 
Q 3209 422 3611 934 
Q 4013 1447 4013 2328 
Q 4013 3213 3611 3725 
Q 3209 4238 2522 4238 
z
M 2522 4750 
Q 3503 4750 4090 4092 
Q 4678 3434 4678 2328 
Q 4678 1225 4090 567 
Q 3503 -91 2522 -91 
Q 1538 -91 948 565 
Q 359 1222 359 2328 
Q 359 3434 948 4092 
Q 1538 4750 2522 4750 
z
" transform="scale(0.015625)"/>
      </defs>
      <use xlink:href="#DejaVuSans-48"/>
      <use xlink:href="#DejaVuSans-69" transform="translate(75.195312 0)"/>
      <use xlink:href="#DejaVuSans-73" transform="translate(102.978516 0)"/>
      <use xlink:href="#DejaVuSans-74" transform="translate(155.078125 0)"/>
      <use xlink:href="#DejaVuSans-4d" transform="translate(194.287109 0)"/>
      <use xlink:href="#DejaVuSans-56" transform="translate(280.566406 0)"/>
      <use xlink:href="#DejaVuSans-4f" transform="translate(347.224609 0)"/>
     </g>
    </g>
    <g id="line2d_56">
     <path d="M 79.22 67.894687 
L 89.22 67.894687 
L 99.22 67.894687 
" style="fill: none; stroke: #2ca02c; stroke-width: 1.5; stroke-linecap: square"/>
    </g>
    <g id="text_21">
     <!-- OLS_MVO -->
     <g transform="translate(107.22 71.394687) scale(0.1 -0.1)">
      <defs>
       <path id="DejaVuSans-4c" d="M 628 4666 
L 1259 4666 
L 1259 531 
L 3531 531 
L 3531 0 
L 628 0 
L 628 4666 
z
" transform="scale(0.015625)"/>
       <path id="DejaVuSans-53" d="M 3425 4513 
L 3425 3897 
Q 3066 4069 2747 4153 
Q 2428 4238 2131 4238 
Q 1616 4238 1336 4038 
Q 1056 3838 1056 3469 
Q 1056 3159 1242 3001 
Q 1428 2844 1947 2747 
L 2328 2669 
Q 3034 2534 3370 2195 
Q 3706 1856 3706 1288 
Q 3706 609 3251 259 
Q 2797 -91 1919 -91 
Q 1588 -91 1214 -16 
Q 841 59 441 206 
L 441 856 
Q 825 641 1194 531 
Q 1563 422 1919 422 
Q 2459 422 2753 634 
Q 3047 847 3047 1241 
Q 3047 1584 2836 1778 
Q 2625 1972 2144 2069 
L 1759 2144 
Q 1053 2284 737 2584 
Q 422 2884 422 3419 
Q 422 4038 858 4394 
Q 1294 4750 2059 4750 
Q 2388 4750 2728 4690 
Q 3069 4631 3425 4513 
z
" transform="scale(0.015625)"/>
       <path id="DejaVuSans-5f" d="M 3263 -1063 
L 3263 -1509 
L -63 -1509 
L -63 -1063 
L 3263 -1063 
z
" transform="scale(0.015625)"/>
      </defs>
      <use xlink:href="#DejaVuSans-4f"/>
      <use xlink:href="#DejaVuSans-4c" transform="translate(78.710938 0)"/>
      <use xlink:href="#DejaVuSans-53" transform="translate(134.423828 0)"/>
      <use xlink:href="#DejaVuSans-5f" transform="translate(197.900391 0)"/>
      <use xlink:href="#DejaVuSans-4d" transform="translate(247.900391 0)"/>
      <use xlink:href="#DejaVuSans-56" transform="translate(334.179688 0)"/>
      <use xlink:href="#DejaVuSans-4f" transform="translate(400.837891 0)"/>
     </g>
    </g>
    <g id="line2d_57">
     <path d="M 79.22 82.850937 
L 89.22 82.850937 
L 99.22 82.850937 
" style="fill: none; stroke: #d62728; stroke-width: 1.5; stroke-linecap: square"/>
    </g>
    <g id="text_22">
     <!-- LASSO_MVO -->
     <g transform="translate(107.22 86.350937) scale(0.1 -0.1)">
      <defs>
       <path id="DejaVuSans-41" d="M 2188 4044 
L 1331 1722 
L 3047 1722 
L 2188 4044 
z
M 1831 4666 
L 2547 4666 
L 4325 0 
L 3669 0 
L 3244 1197 
L 1141 1197 
L 716 0 
L 50 0 
L 1831 4666 
z
" transform="scale(0.015625)"/>
      </defs>
      <use xlink:href="#DejaVuSans-4c"/>
      <use xlink:href="#DejaVuSans-41" transform="translate(57.962891 0)"/>
      <use xlink:href="#DejaVuSans-53" transform="translate(126.371094 0)"/>
      <use xlink:href="#DejaVuSans-53" transform="translate(189.847656 0)"/>
      <use xlink:href="#DejaVuSans-4f" transform="translate(253.324219 0)"/>
      <use xlink:href="#DejaVuSans-5f" transform="translate(332.035156 0)"/>
      <use xlink:href="#DejaVuSans-4d" transform="translate(382.035156 0)"/>
      <use xlink:href="#DejaVuSans-56" transform="translate(468.314453 0)"/>
      <use xlink:href="#DejaVuSans-4f" transform="translate(534.972656 0)"/>
     </g>
    </g>
    <g id="line2d_58">
     <path d="M 79.22 97.807187 
L 89.22 97.807187 
L 99.22 97.807187 
" style="fill: none; stroke: #9467bd; stroke-width: 1.5; stroke-linecap: square"/>
    </g>
    <g id="text_23">
     <!-- FactorRP -->
     <g transform="translate(107.22 101.307187) scale(0.1 -0.1)">
      <defs>
       <path id="DejaVuSans-46" d="M 628 4666 
L 3309 4666 
L 3309 4134 
L 1259 4134 
L 1259 2759 
L 3109 2759 
L 3109 2228 
L 1259 2228 
L 1259 0 
L 628 0 
L 628 4666 
z
" transform="scale(0.015625)"/>
       <path id="DejaVuSans-63" d="M 3122 3366 
L 3122 2828 
Q 2878 2963 2633 3030 
Q 2388 3097 2138 3097 
Q 1578 3097 1268 2742 
Q 959 2388 959 1747 
Q 959 1106 1268 751 
Q 1578 397 2138 397 
Q 2388 397 2633 464 
Q 2878 531 3122 666 
L 3122 134 
Q 2881 22 2623 -34 
Q 2366 -91 2075 -91 
Q 1284 -91 818 406 
Q 353 903 353 1747 
Q 353 2603 823 3093 
Q 1294 3584 2113 3584 
Q 2378 3584 2631 3529 
Q 2884 3475 3122 3366 
z
" transform="scale(0.015625)"/>
       <path id="DejaVuSans-52" d="M 2841 2188 
Q 3044 2119 3236 1894 
Q 3428 1669 3622 1275 
L 4263 0 
L 3584 0 
L 2988 1197 
Q 2756 1666 2539 1819 
Q 2322 1972 1947 1972 
L 1259 1972 
L 1259 0 
L 628 0 
L 628 4666 
L 2053 4666 
Q 2853 4666 3247 4331 
Q 3641 3997 3641 3322 
Q 3641 2881 3436 2590 
Q 3231 2300 2841 2188 
z
M 1259 4147 
L 1259 2491 
L 2053 2491 
Q 2509 2491 2742 2702 
Q 2975 2913 2975 3322 
Q 2975 3731 2742 3939 
Q 2509 4147 2053 4147 
L 1259 4147 
z
" transform="scale(0.015625)"/>
      </defs>
      <use xlink:href="#DejaVuSans-46"/>
      <use xlink:href="#DejaVuSans-61" transform="translate(48.394531 0)"/>
      <use xlink:href="#DejaVuSans-63" transform="translate(109.673828 0)"/>
      <use xlink:href="#DejaVuSans-74" transform="translate(164.654297 0)"/>
      <use xlink:href="#DejaVuSans-6f" transform="translate(203.863281 0)"/>
      <use xlink:href="#DejaVuSans-72" transform="translate(265.044922 0)"/>
      <use xlink:href="#DejaVuSans-52" transform="translate(306.158203 0)"/>
      <use xlink:href="#DejaVuSans-50" transform="translate(375.640625 0)"/>
     </g>
    </g>
    <g id="line2d_59">
     <path d="M 79.22 112.485312 
L 89.22 112.485312 
L 99.22 112.485312 
" style="fill: none; stroke: #8c564b; stroke-width: 1.5; stroke-linecap: square"/>
    </g>
    <g id="text_24">
     <!-- OLS_PCA_MVO -->
     <g transform="translate(107.22 115.985312) scale(0.1 -0.1)">
      <defs>
       <path id="DejaVuSans-43" d="M 4122 4306 
L 4122 3641 
Q 3803 3938 3442 4084 
Q 3081 4231 2675 4231 
Q 1875 4231 1450 3742 
Q 1025 3253 1025 2328 
Q 1025 1406 1450 917 
Q 1875 428 2675 428 
Q 3081 428 3442 575 
Q 3803 722 4122 1019 
L 4122 359 
Q 3791 134 3420 21 
Q 3050 -91 2638 -91 
Q 1578 -91 968 557 
Q 359 1206 359 2328 
Q 359 3453 968 4101 
Q 1578 4750 2638 4750 
Q 3056 4750 3426 4639 
Q 3797 4528 4122 4306 
z
" transform="scale(0.015625)"/>
      </defs>
      <use xlink:href="#DejaVuSans-4f"/>
      <use xlink:href="#DejaVuSans-4c" transform="translate(78.710938 0)"/>
      <use xlink:href="#DejaVuSans-53" transform="translate(134.423828 0)"/>
      <use xlink:href="#DejaVuSans-5f" transform="translate(197.900391 0)"/>
      <use xlink:href="#DejaVuSans-50" transform="translate(247.900391 0)"/>
      <use xlink:href="#DejaVuSans-43" transform="translate(308.203125 0)"/>
      <use xlink:href="#DejaVuSans-41" transform="translate(378.027344 0)"/>
      <use xlink:href="#DejaVuSans-5f" transform="translate(446.435547 0)"/>
      <use xlink:href="#DejaVuSans-4d" transform="translate(496.435547 0)"/>
      <use xlink:href="#DejaVuSans-56" transform="translate(582.714844 0)"/>
      <use xlink:href="#DejaVuSans-4f" transform="translate(649.373047 0)"/>
     </g>
    </g>
    <g id="line2d_60">
     <path d="M 79.22 127.441562 
L 89.22 127.441562 
L 99.22 127.441562 
" style="fill: none; stroke: #e377c2; stroke-width: 1.5; stroke-linecap: square"/>
    </g>
    <g id="text_25">
     <!-- Ensemble_MVO -->
     <g transform="translate(107.22 130.941562) scale(0.1 -0.1)">
      <defs>
       <path id="DejaVuSans-6d" d="M 3328 2828 
Q 3544 3216 3844 3400 
Q 4144 3584 4550 3584 
Q 5097 3584 5394 3201 
Q 5691 2819 5691 2113 
L 5691 0 
L 5113 0 
L 5113 2094 
Q 5113 2597 4934 2840 
Q 4756 3084 4391 3084 
Q 3944 3084 3684 2787 
Q 3425 2491 3425 1978 
L 3425 0 
L 2847 0 
L 2847 2094 
Q 2847 2600 2669 2842 
Q 2491 3084 2119 3084 
Q 1678 3084 1418 2786 
Q 1159 2488 1159 1978 
L 1159 0 
L 581 0 
L 581 3500 
L 1159 3500 
L 1159 2956 
Q 1356 3278 1631 3431 
Q 1906 3584 2284 3584 
Q 2666 3584 2933 3390 
Q 3200 3197 3328 2828 
z
" transform="scale(0.015625)"/>
       <path id="DejaVuSans-62" d="M 3116 1747 
Q 3116 2381 2855 2742 
Q 2594 3103 2138 3103 
Q 1681 3103 1420 2742 
Q 1159 2381 1159 1747 
Q 1159 1113 1420 752 
Q 1681 391 2138 391 
Q 2594 391 2855 752 
Q 3116 1113 3116 1747 
z
M 1159 2969 
Q 1341 3281 1617 3432 
Q 1894 3584 2278 3584 
Q 2916 3584 3314 3078 
Q 3713 2572 3713 1747 
Q 3713 922 3314 415 
Q 2916 -91 2278 -91 
Q 1894 -91 1617 61 
Q 1341 213 1159 525 
L 1159 0 
L 581 0 
L 581 4863 
L 1159 4863 
L 1159 2969 
z
" transform="scale(0.015625)"/>
      </defs>
      <use xlink:href="#DejaVuSans-45"/>
      <use xlink:href="#DejaVuSans-6e" transform="translate(63.183594 0)"/>
      <use xlink:href="#DejaVuSans-73" transform="translate(126.5625 0)"/>
      <use xlink:href="#DejaVuSans-65" transform="translate(178.662109 0)"/>
      <use xlink:href="#DejaVuSans-6d" transform="translate(240.185547 0)"/>
      <use xlink:href="#DejaVuSans-62" transform="translate(337.597656 0)"/>
      <use xlink:href="#DejaVuSans-6c" transform="translate(401.074219 0)"/>
      <use xlink:href="#DejaVuSans-65" transform="translate(428.857422 0)"/>
      <use xlink:href="#DejaVuSans-5f" transform="translate(490.380859 0)"/>
      <use xlink:href="#DejaVuSans-4d" transform="translate(540.380859 0)"/>
      <use xlink:href="#DejaVuSans-56" transform="translate(626.660156 0)"/>
      <use xlink:href="#DejaVuSans-4f" transform="translate(693.318359 0)"/>
     </g>
    </g>
    <g id="line2d_61">
     <path d="M 79.22 142.397812 
L 89.22 142.397812 
L 99.22 142.397812 
" style="fill: none; stroke: #7f7f7f; stroke-width: 1.5; stroke-linecap: square"/>
    </g>
    <g id="text_26">
     <!-- Ensemble_RP -->
     <g transform="translate(107.22 145.897812) scale(0.1 -0.1)">
      <use xlink:href="#DejaVuSans-45"/>
      <use xlink:href="#DejaVuSans-6e" transform="translate(63.183594 0)"/>
      <use xlink:href="#DejaVuSans-73" transform="translate(126.5625 0)"/>
      <use xlink:href="#DejaVuSans-65" transform="translate(178.662109 0)"/>
      <use xlink:href="#DejaVuSans-6d" transform="translate(240.185547 0)"/>
      <use xlink:href="#DejaVuSans-62" transform="translate(337.597656 0)"/>
      <use xlink:href="#DejaVuSans-6c" transform="translate(401.074219 0)"/>
      <use xlink:href="#DejaVuSans-65" transform="translate(428.857422 0)"/>
      <use xlink:href="#DejaVuSans-5f" transform="translate(490.380859 0)"/>
      <use xlink:href="#DejaVuSans-52" transform="translate(540.380859 0)"/>
      <use xlink:href="#DejaVuSans-50" transform="translate(609.863281 0)"/>
     </g>
    </g>
   </g>
  </g>
 </g>
 <defs>
  <clipPath id="pb7c404eec6">
   <rect x="70.22" y="25.44" width="638.98" height="364.6"/>
  </clipPath>
 </defs>
</svg>
